<svg width="62" height="42" viewBox="0 0 62 42" fill="none" xmlns="http://www.w3.org/2000/svg">
<path d="M2.08687 1C0.37924 23.6663 24.0633 36.3018 54.4294 35.2489" stroke="white" stroke-width="2.73087"/>
<g clip-path="url(#clip0_35_155)">
<path d="M28.843 27.163C28.2522 27.5292 27.8143 28.0849 27.6318 28.749L27.1896 28.7025C26.9852 28.6811 26.8338 28.5122 26.8533 28.3272L26.9607 27.3051C26.9801 27.1201 27.1632 26.9865 27.3677 27.008L28.843 27.163ZM32.9236 29.3052C32.9396 29.4394 32.9407 29.572 32.9262 29.7099C32.805 30.8632 31.6733 31.6927 30.3949 31.5583C29.1203 31.4243 28.182 30.3773 28.3032 29.2241C28.3177 29.0861 28.3463 28.9566 28.3898 28.8286C28.6956 27.8851 29.7088 27.2539 30.8348 27.3723C31.9608 27.4906 32.8244 28.319 32.9236 29.3052ZM31.7704 29.5885C31.7853 29.4473 31.7701 29.3062 31.7233 29.179C31.5923 28.7811 31.2077 28.4721 30.7247 28.4213C30.2415 28.3705 29.8011 28.5928 29.5902 28.9548C29.518 29.0695 29.4739 29.2043 29.459 29.3455C29.3986 29.9205 29.8657 30.4455 30.5048 30.5127C31.144 30.5799 31.71 30.1634 31.7704 29.5885ZM28.0519 25.7235L29.1054 15.7004C29.1639 15.1434 29.7106 14.7442 30.3263 14.8089L48.0898 16.6759C48.7055 16.7407 49.1572 17.2447 49.0986 17.8018L48.0451 27.8248C48.0257 28.0097 47.8426 28.1434 47.6382 28.122L28.3883 26.0987C28.1838 26.0772 28.0325 25.9083 28.0519 25.7235ZM45.4661 26.4097C45.4493 26.5693 45.5787 26.7137 45.7552 26.7323L45.7651 26.7333C45.9415 26.7519 46.0981 26.6375 46.1149 26.4779L46.989 18.1613C47.0058 18.0017 46.8764 17.8573 46.7 17.8388L46.69 17.8377C46.5136 17.8192 46.357 17.9335 46.3402 18.0931L45.4661 26.4097ZM42.4623 26.094C42.4455 26.2536 42.5749 26.398 42.7513 26.4166L42.7612 26.4176C42.9377 26.4361 43.0942 26.3218 43.111 26.1621L43.9851 17.8456C44.0019 17.686 43.8725 17.5416 43.6961 17.523L43.6861 17.522C43.5097 17.5034 43.3532 17.6178 43.3364 17.7774L42.4623 26.094ZM39.4585 25.7782C39.4417 25.9379 39.5711 26.0823 39.7475 26.1008L39.7574 26.1019C39.9338 26.1204 40.0904 26.0061 40.1072 25.8464L40.9813 17.5299C40.9981 17.3703 40.8687 17.2259 40.6923 17.2073L40.6823 17.2063C40.5059 17.1877 40.3493 17.3021 40.3326 17.4617L39.4585 25.7782ZM36.4547 25.4625C36.4379 25.6222 36.5674 25.7666 36.7438 25.7851L36.7537 25.7862C36.9301 25.8047 37.0867 25.6904 37.1035 25.5307L37.9776 17.2142C37.9944 17.0546 37.8649 16.9102 37.6886 16.8916L37.6786 16.8906C37.5022 16.872 37.3456 16.9864 37.3288 17.146L36.4547 25.4625ZM33.4509 25.1468C33.4342 25.3065 33.5635 25.4509 33.74 25.4694L33.7499 25.4705C33.9263 25.489 34.0829 25.3746 34.0997 25.215L34.9738 16.8985C34.9905 16.7389 34.8612 16.5944 34.6848 16.5759L34.6748 16.5749C34.4984 16.5563 34.3418 16.6707 34.325 16.8303L33.4509 25.1468ZM30.4472 24.8311C30.4304 24.9907 30.5598 25.1352 30.7362 25.1537L30.7461 25.1548C30.9226 25.1733 31.0791 25.0589 31.0959 24.8993L31.97 16.5828C31.9868 16.4232 31.8574 16.2787 31.681 16.2602L31.671 16.2592C31.4947 16.2406 31.338 16.355 31.3213 16.5146L30.4472 24.8311ZM38.628 29.9047C38.644 30.0389 38.6451 30.1716 38.6306 30.3095C38.5094 31.4627 37.3777 32.2922 36.0993 32.1579C34.8246 32.0239 33.8864 30.9769 34.0076 29.8236C34.0221 29.6857 34.0508 29.5562 34.0942 29.4282C34.4001 28.4846 35.4133 27.8535 36.5393 27.9718C37.6653 28.0902 38.5288 28.9186 38.628 29.9047ZM37.4749 30.188C37.4897 30.0468 37.4745 29.9058 37.4314 29.779C37.2967 29.3806 36.9121 29.0716 36.429 29.0208C35.946 28.9701 35.5055 29.1924 35.2909 29.554C35.2224 29.6691 35.1782 29.8039 35.1634 29.9451C35.1029 30.52 35.57 31.045 36.2093 31.1122C36.8484 31.1794 37.4144 30.763 37.4749 30.188ZM34.5474 27.7625L32.8268 27.5817C33.1748 27.9173 33.4359 28.3289 33.5727 28.7785C33.7963 28.3669 34.1372 28.0185 34.5474 27.7625ZM59.6931 30.7453L59.5856 31.7675C59.5662 31.9524 59.383 32.0862 59.1787 32.0647L56.1686 31.7483C56.0933 30.3908 54.9346 29.2254 53.3998 29.0641C51.865 28.9028 50.4856 29.8014 50.1297 31.1136L39.3861 29.9844C39.3457 29.2968 39.0329 28.6622 38.5311 28.1812L48.9663 29.278L49.977 19.6618C50.0159 19.292 50.3784 19.0241 50.7909 19.0675L54.299 19.4362C55.2875 19.5401 56.1625 20.0808 56.6384 20.8787L58.5828 24.1493C58.8669 24.6279 58.9902 25.1712 58.934 25.7058L58.4537 30.2751L59.3567 30.37C59.5612 30.3916 59.7125 30.5604 59.6931 30.7453ZM56.5903 24.0181L55.025 21.5012C54.9636 21.4063 54.8578 21.3408 54.7352 21.3279L51.9146 21.0315C51.7102 21.01 51.527 21.1437 51.5076 21.3287L51.2634 23.652C51.2436 23.8403 51.3954 24.0058 51.5997 24.0273L56.2301 24.514C56.5311 24.5456 56.7379 24.258 56.5903 24.0181ZM55.4204 32.0742C55.2992 33.2274 54.1638 34.0565 52.8891 33.9225C51.6107 33.7882 50.6762 32.7415 50.7974 31.5883C50.919 30.4317 52.0507 29.6022 53.3291 29.7366C54.6038 29.8705 55.542 30.9175 55.4204 32.0742ZM54.2647 31.9527C54.3255 31.3744 53.858 30.8528 53.2189 30.7856C52.5797 30.7184 52.014 31.1315 51.9532 31.7098C51.8928 32.2847 52.3599 32.8097 52.999 32.8769C53.6382 32.9441 54.2043 32.5276 54.2647 31.9527Z" fill="white"/>
</g>
<rect x="29.157" y="8.283" width="32.5209" height="29.3863" transform="rotate(6 29.157 8.283)" stroke="white" stroke-width="0.391817"/>
<path d="M26.1964 27.0796C22.2438 25.915 26.0936 26.7355 20.5151 24.9066" stroke="white" stroke-width="0.783635"/>
<path d="M26.7089 25.9516C24.9365 24.9255 26.7815 24.4663 24.3499 22.1579" stroke="white" stroke-width="0.783635"/>
<path d="M26.0326 28.6383C21.0798 28.9057 22.3202 26.4753 18.6698 27.4705" stroke="white" stroke-width="0.783635"/>
<defs>
<clipPath id="clip0_35_155">
<rect x="28.9827" y="8.06769" width="32.9127" height="29.7781" transform="rotate(6 28.9827 8.06769)" fill="white"/>
</clipPath>
</defs>
</svg>
