<svg width="101" height="66" viewBox="0 0 101 66" fill="none" xmlns="http://www.w3.org/2000/svg">
<path d="M3.14172 0.25C0.355583 37.2319 38.998 57.8477 88.5428 56.1297" stroke="#673CE8" stroke-width="4.45563"/>
<g clip-path="url(#clip0_20_732)">
<path d="M46.7965 42.9369C45.8326 43.5344 45.1182 44.4411 44.8203 45.5247L44.0988 45.4488C43.7653 45.4138 43.5184 45.1382 43.5501 44.8365L43.7254 43.1687C43.7571 42.867 44.0558 42.6489 44.3894 42.684L46.7965 42.9369ZM53.4544 46.4321C53.4804 46.6511 53.4822 46.8675 53.4586 47.0925C53.2608 48.9741 51.4143 50.3275 49.3286 50.1082C47.2489 49.8896 45.7181 48.1813 45.9158 46.2997C45.9395 46.0747 45.9861 45.8634 46.0571 45.6546C46.5561 44.1151 48.2092 43.0853 50.0463 43.2784C51.8835 43.4715 53.2925 44.8231 53.4544 46.4321ZM51.5729 46.8943C51.5971 46.6639 51.5723 46.4338 51.496 46.2262C51.2823 45.577 50.6548 45.0728 49.8666 44.99C49.0783 44.9071 48.3598 45.2698 48.0157 45.8604C47.8979 46.0476 47.8258 46.2675 47.8016 46.4979C47.703 47.436 48.4651 48.2926 49.508 48.4022C50.5508 48.5118 51.4743 47.8323 51.5729 46.8943ZM45.5058 40.5883L47.2246 24.2349C47.3202 23.326 48.212 22.6747 49.2166 22.7803L78.1991 25.8265C79.2038 25.9321 79.9407 26.7545 79.8452 27.6634L78.1263 44.0168C78.0946 44.3184 77.7959 44.5366 77.4624 44.5016L46.0546 41.2005C45.7211 41.1654 45.4741 40.8899 45.5058 40.5883ZM73.9184 41.7078C73.891 41.9683 74.1022 42.2039 74.39 42.2342L74.4063 42.2359C74.6941 42.2661 74.9496 42.0796 74.977 41.8191L76.4031 28.25C76.4305 27.9896 76.2194 27.754 75.9316 27.7237L75.9153 27.722C75.6274 27.6918 75.3719 27.8783 75.3445 28.1387L73.9184 41.7078ZM69.0175 41.1927C68.9901 41.4532 69.2012 41.6888 69.489 41.7191L69.5052 41.7208C69.7931 41.751 70.0485 41.5644 70.0759 41.304L71.5021 27.7349C71.5294 27.4745 71.3184 27.2388 71.0305 27.2086L71.0142 27.2069C70.7264 27.1766 70.471 27.3632 70.4436 27.6236L69.0175 41.1927ZM64.1165 40.6776C64.0891 40.9381 64.3002 41.1737 64.588 41.204L64.6043 41.2057C64.8921 41.2359 65.1476 41.0493 65.175 40.7889L66.6011 27.2198C66.6285 26.9594 66.4174 26.7237 66.1296 26.6935L66.1133 26.6918C65.8255 26.6615 65.57 26.8481 65.5426 27.1085L64.1165 40.6776ZM59.2156 40.1625C59.1883 40.423 59.3994 40.6586 59.6872 40.6889L59.7035 40.6906C59.9912 40.7208 60.2468 40.5342 60.2742 40.2738L61.7003 26.7047C61.7277 26.4443 61.5165 26.2086 61.2287 26.1784L61.2125 26.1767C60.9247 26.1464 60.6692 26.333 60.6418 26.5934L59.2156 40.1625ZM54.3147 39.6474C54.2874 39.9079 54.4984 40.1435 54.7863 40.1738L54.8025 40.1755C55.0903 40.2057 55.3458 40.0191 55.3732 39.7586L56.7993 26.1896C56.8267 25.9292 56.6156 25.6935 56.3278 25.6633L56.3116 25.6616C56.0237 25.6313 55.7683 25.8179 55.7409 26.0783L54.3147 39.6474ZM49.4138 39.1323C49.3865 39.3928 49.5976 39.6284 49.8854 39.6587L49.9016 39.6604C50.1895 39.6906 50.445 39.504 50.4723 39.2435L51.8985 25.6745C51.9259 25.4141 51.7148 25.1784 51.4269 25.1482L51.4107 25.1465C51.1229 25.1162 50.8674 25.3028 50.84 25.5632L49.4138 39.1323ZM62.7616 47.4103C62.7876 47.6293 62.7894 47.8457 62.7658 48.0707C62.568 49.9523 60.7215 51.3057 58.6358 51.0865C56.556 50.8679 55.0253 49.1596 55.223 47.278C55.2467 47.0529 55.2934 46.8416 55.3643 46.6328C55.8633 45.0933 57.5164 44.0635 59.3536 44.2566C61.1908 44.4497 62.5997 45.8013 62.7616 47.4103ZM60.8801 47.8725C60.9043 47.6422 60.8794 47.412 60.8092 47.2051C60.5894 46.5552 59.9619 46.051 59.1737 45.9682C58.3856 45.8853 57.6668 46.248 57.3168 46.838C57.2051 47.0258 57.1329 47.2458 57.1087 47.4761C57.0101 48.4142 57.7722 49.2708 58.8152 49.3804C59.858 49.49 60.7815 48.8106 60.8801 47.8725ZM56.1036 43.9151L53.2964 43.6201C53.8642 44.1677 54.2901 44.8393 54.5135 45.5727C54.8782 44.9012 55.4345 44.3328 56.1036 43.9151ZM97.1308 48.7818L96.9556 50.4495C96.9238 50.7513 96.625 50.9695 96.2916 50.9344L91.3804 50.4183C91.2576 48.2033 89.367 46.3019 86.8629 46.0387C84.3587 45.7755 82.1081 47.2416 81.5275 49.3827L63.9985 47.5403C63.9325 46.4184 63.4222 45.383 62.6035 44.5982L79.6293 46.3877L81.2783 30.6982C81.3417 30.0947 81.9332 29.6577 82.6062 29.7285L88.33 30.3301C89.9429 30.4996 91.3705 31.3818 92.1469 32.6836L95.3194 38.0199C95.7829 38.8008 95.984 39.6872 95.8923 40.5594L95.1087 48.0146L96.5821 48.1695C96.9156 48.2046 97.1626 48.48 97.1308 48.7818ZM92.0684 37.8058L89.5145 33.6992C89.4143 33.5445 89.2417 33.4376 89.0416 33.4166L84.4397 32.9329C84.1062 32.8979 83.8073 33.116 83.7756 33.4178L83.3772 37.2085C83.3449 37.5157 83.5925 37.7858 83.9259 37.8208L91.4807 38.6148C91.9719 38.6665 92.3092 38.1972 92.0684 37.8058ZM90.1596 50.9499C89.9618 52.8315 88.1094 54.1843 86.0296 53.9657C83.9438 53.7464 82.4191 52.0388 82.6169 50.1572C82.8152 48.27 84.6617 46.9167 86.7475 47.1359C88.8273 47.3545 90.358 49.0627 90.1596 50.9499ZM88.274 50.7518C88.3732 49.8082 87.6105 48.9571 86.5677 48.8475C85.5248 48.7379 84.6018 49.4118 84.5027 50.3554C84.4041 51.2934 85.1661 52.15 86.209 52.2597C87.2519 52.3693 88.1754 51.6898 88.274 50.7518Z" fill="#673CE8"/>
</g>
<path d="M42.4784 42.801C36.0294 40.9008 42.3107 42.2395 33.209 39.2556" stroke="#673CE8" stroke-width="1.27856"/>
<path d="M43.3147 40.9605C40.4227 39.2864 43.433 38.5371 39.4656 34.7707" stroke="#673CE8" stroke-width="1.27856"/>
<path d="M42.2111 45.344C34.1302 45.7804 36.154 41.8149 30.1981 43.4386" stroke="#673CE8" stroke-width="1.27856"/>
<defs>
<clipPath id="clip0_20_732">
<rect width="53.6996" height="48.5854" fill="white" transform="translate(47.0243 11.7815) rotate(6)"/>
</clipPath>
</defs>
</svg>
