<svg width="679" height="819" viewBox="0 0 679 819" fill="none" xmlns="http://www.w3.org/2000/svg">
<path d="M0 0H654C667.807 0 679 11.1929 679 25V790C679 803.807 667.807 815 654 815H0V0Z" fill="#673CE8"/>
<g clip-path="url(#clip0_35_40)">
<circle cx="580" cy="792" r="125" fill="white" fill-opacity="0.19"/>
<circle cx="580" cy="792" r="124.5" stroke="#FFF8F8" stroke-opacity="0.22"/>
<circle cx="602" cy="819" r="125" fill="white" fill-opacity="0.19"/>
<circle cx="602" cy="819" r="124.5" stroke="#FFF8F8" stroke-opacity="0.22"/>
<circle cx="623" cy="850" r="125" fill="white" fill-opacity="0.19"/>
<circle cx="623" cy="850" r="124.5" stroke="#FFF8F8" stroke-opacity="0.22"/>
<circle cx="649" cy="876" r="125" fill="white" fill-opacity="0.19"/>
<circle cx="649" cy="876" r="124.5" stroke="#FFF8F8" stroke-opacity="0.22"/>
</g>
<g clip-path="url(#clip1_35_40)">
<circle cx="623" cy="50.9999" r="125" transform="rotate(-90 623 50.9999)" fill="white" fill-opacity="0.19"/>
<circle cx="623" cy="50.9999" r="124.5" transform="rotate(-90 623 50.9999)" stroke="#FFF8F8" stroke-opacity="0.22"/>
<circle cx="650" cy="28.9999" r="125" transform="rotate(-90 650 28.9999)" fill="white" fill-opacity="0.19"/>
<circle cx="650" cy="28.9999" r="124.5" transform="rotate(-90 650 28.9999)" stroke="#FFF8F8" stroke-opacity="0.22"/>
<circle cx="681" cy="7.99987" r="125" transform="rotate(-90 681 7.99987)" fill="white" fill-opacity="0.19"/>
<circle cx="681" cy="7.99987" r="124.5" transform="rotate(-90 681 7.99987)" stroke="#FFF8F8" stroke-opacity="0.22"/>
<circle cx="707" cy="-18.0002" r="125" transform="rotate(-90 707 -18.0002)" fill="white" fill-opacity="0.19"/>
<circle cx="707" cy="-18.0002" r="124.5" transform="rotate(-90 707 -18.0002)" stroke="#FFF8F8" stroke-opacity="0.22"/>
</g>
<g clip-path="url(#clip2_35_40)">
<circle cx="14.9999" cy="204" r="125" transform="rotate(-180 14.9999 204)" fill="white" fill-opacity="0.19"/>
<circle cx="14.9999" cy="204" r="124.5" transform="rotate(-180 14.9999 204)" stroke="#FFF8F8" stroke-opacity="0.22"/>
<circle cx="-7.00006" cy="177" r="125" transform="rotate(-180 -7.00006 177)" fill="white" fill-opacity="0.19"/>
<circle cx="-7.00006" cy="177" r="124.5" transform="rotate(-180 -7.00006 177)" stroke="#FFF8F8" stroke-opacity="0.22"/>
<circle cx="-28.0001" cy="146" r="125" transform="rotate(-180 -28.0001 146)" fill="white" fill-opacity="0.19"/>
<circle cx="-28.0001" cy="146" r="124.5" transform="rotate(-180 -28.0001 146)" stroke="#FFF8F8" stroke-opacity="0.22"/>
<circle cx="-54.0001" cy="120" r="125" transform="rotate(-180 -54.0001 120)" fill="white" fill-opacity="0.19"/>
<circle cx="-54.0001" cy="120" r="124.5" transform="rotate(-180 -54.0001 120)" stroke="#FFF8F8" stroke-opacity="0.22"/>
</g>
<g clip-path="url(#clip3_35_40)">
<circle cx="125" cy="125" r="125" transform="matrix(-1 0 0 1 140 490)" fill="white" fill-opacity="0.19"/>
<circle cx="125" cy="125" r="124.5" transform="matrix(-1 0 0 1 140 490)" stroke="#FFF8F8" stroke-opacity="0.22"/>
<circle cx="125" cy="125" r="125" transform="matrix(-1 0 0 1 118 517)" fill="white" fill-opacity="0.19"/>
<circle cx="125" cy="125" r="124.5" transform="matrix(-1 0 0 1 118 517)" stroke="#FFF8F8" stroke-opacity="0.22"/>
<circle cx="125" cy="125" r="125" transform="matrix(-1 0 0 1 97 548)" fill="white" fill-opacity="0.19"/>
<circle cx="125" cy="125" r="124.5" transform="matrix(-1 0 0 1 97 548)" stroke="#FFF8F8" stroke-opacity="0.22"/>
<circle cx="125" cy="125" r="125" transform="matrix(-1 0 0 1 70.9999 574)" fill="white" fill-opacity="0.19"/>
<circle cx="125" cy="125" r="124.5" transform="matrix(-1 0 0 1 70.9999 574)" stroke="#FFF8F8" stroke-opacity="0.22"/>
</g>
<path d="M224.755 597.128H222.187V583.28L216.739 597.008H214.627L208.987 583.28V597.128H206.395V579.224H209.851L215.659 593.456L221.299 579.224H224.755V597.128ZM236.269 597.152V595.88C235.485 596.904 234.357 597.416 232.885 597.416C231.285 597.416 230.101 596.968 229.333 596.072C228.789 595.416 228.517 594.616 228.517 593.672C228.517 590.408 230.917 588.776 235.717 588.776H236.077V588.344C236.077 586.776 235.349 585.992 233.893 585.992C232.581 585.992 231.285 586.336 230.005 587.024V584.672C231.221 584.048 232.565 583.736 234.037 583.736C235.573 583.736 236.693 584.096 237.397 584.816C238.149 585.6 238.525 586.816 238.525 588.464V594.056C238.525 595.528 238.573 596.56 238.669 597.152H236.269ZM236.077 591.008H235.573C234.325 591.008 233.365 591.12 232.693 591.344C231.621 591.696 231.085 592.392 231.085 593.432C231.085 594.584 231.749 595.16 233.077 595.16C235.077 595.16 236.077 593.944 236.077 591.512V591.008ZM252.851 597.128H250.355V589.088C250.355 587.024 249.603 585.992 248.099 585.992C247.075 585.992 246.299 586.4 245.771 587.216C245.339 587.92 245.123 588.824 245.123 589.928V597.128H242.627V587.36C242.627 586.736 242.611 586.152 242.579 585.608C242.563 585.048 242.539 584.52 242.507 584.024H244.907V585.344C245.691 584.272 246.851 583.736 248.387 583.736C251.363 583.736 252.851 585.392 252.851 588.704V597.128ZM263.902 597.152V595.88C263.118 596.904 261.99 597.416 260.518 597.416C258.918 597.416 257.734 596.968 256.966 596.072C256.422 595.416 256.15 594.616 256.15 593.672C256.15 590.408 258.55 588.776 263.35 588.776H263.71V588.344C263.71 586.776 262.982 585.992 261.526 585.992C260.214 585.992 258.918 586.336 257.638 587.024V584.672C258.854 584.048 260.198 583.736 261.67 583.736C263.206 583.736 264.326 584.096 265.03 584.816C265.782 585.6 266.158 586.816 266.158 588.464V594.056C266.158 595.528 266.206 596.56 266.302 597.152H263.902ZM263.71 591.008H263.206C261.958 591.008 260.998 591.12 260.326 591.344C259.254 591.696 258.718 592.392 258.718 593.432C258.718 594.584 259.382 595.16 260.71 595.16C262.71 595.16 263.71 593.944 263.71 591.512V591.008ZM275.108 586.112C273.076 586.112 272.06 587.528 272.06 590.36C272.06 592.984 273.044 594.296 275.012 594.296C276.068 594.296 276.868 593.928 277.412 593.192C277.908 592.504 278.156 591.56 278.156 590.36C278.156 588.856 277.908 587.776 277.412 587.12C276.932 586.448 276.164 586.112 275.108 586.112ZM280.58 584.072V594.344C280.58 598.488 278.564 600.56 274.532 600.56C273.044 600.56 271.692 600.32 270.476 599.84L270.692 597.392C271.876 597.984 273.164 598.28 274.556 598.28C276.844 598.28 278.028 597.272 278.108 595.256L278.132 595.136C277.428 596.128 276.388 596.624 275.012 596.624C273.14 596.624 271.708 595.936 270.716 594.56C269.884 593.424 269.468 592 269.468 590.288C269.468 588.256 269.908 586.68 270.788 585.56C271.732 584.376 273.092 583.784 274.868 583.784C276.324 583.784 277.42 584.152 278.156 584.888V584.072H280.58ZM294.559 591.488H286.471C286.519 592.64 286.831 593.536 287.407 594.176C287.999 594.864 288.815 595.208 289.855 595.208C291.295 595.208 292.567 594.896 293.671 594.272V596.696C292.391 597.176 291.095 597.416 289.783 597.416C287.719 597.416 286.183 596.76 285.175 595.448C284.295 594.28 283.855 592.648 283.855 590.552C283.855 588.536 284.343 586.896 285.319 585.632C286.295 584.368 287.607 583.736 289.255 583.736C291.095 583.736 292.471 584.392 293.383 585.704C294.167 586.824 294.559 588.304 294.559 590.144V591.488ZM291.943 589.208C291.943 588.312 291.711 587.56 291.247 586.952C290.767 586.312 290.135 585.992 289.351 585.992C288.551 585.992 287.871 586.32 287.311 586.976C286.751 587.632 286.471 588.376 286.471 589.208H291.943ZM318.827 579.224L312.203 589.568V597.128H309.587V589.568L302.963 579.224H306.083L310.883 587.096L315.827 579.224H318.827ZM326.536 585.992C325.448 585.992 324.584 586.424 323.944 587.288C323.336 588.136 323.032 589.232 323.032 590.576C323.032 591.92 323.336 593.016 323.944 593.864C324.584 594.728 325.448 595.16 326.536 595.16C327.624 595.16 328.48 594.728 329.104 593.864C329.728 593.032 330.04 591.936 330.04 590.576C330.04 589.232 329.728 588.136 329.104 587.288C328.48 586.424 327.624 585.992 326.536 585.992ZM326.536 583.736C328.52 583.736 330.064 584.448 331.168 585.872C332.16 587.136 332.656 588.704 332.656 590.576C332.656 592.448 332.16 594.016 331.168 595.28C330.064 596.704 328.52 597.416 326.536 597.416C324.536 597.416 322.984 596.704 321.88 595.28C320.904 594.048 320.416 592.48 320.416 590.576C320.416 588.672 320.904 587.104 321.88 585.872C322.984 584.448 324.536 583.736 326.536 583.736ZM343.899 597.152V595.832C343.035 596.888 341.899 597.416 340.491 597.416C338.923 597.416 337.731 596.944 336.915 596C336.195 595.12 335.835 593.936 335.835 592.448V584.048H338.403V591.968C338.403 594.096 339.179 595.16 340.731 595.16C341.771 595.16 342.563 594.768 343.107 593.984C343.539 593.344 343.755 592.472 343.755 591.368V584.048H346.299V593.84C346.299 595.024 346.347 596.128 346.443 597.152H343.899ZM356.557 586.4C356.349 586.368 356.157 586.344 355.981 586.328C355.805 586.296 355.629 586.28 355.453 586.28C354.525 586.28 353.837 586.736 353.389 587.648C352.973 588.448 352.765 589.44 352.765 590.624V597.128H350.197V587.24C350.197 586.632 350.181 586.064 350.149 585.536C350.133 584.992 350.109 584.488 350.077 584.024H352.669V585.632C353.405 584.368 354.341 583.736 355.477 583.736C355.829 583.736 356.189 583.784 356.557 583.88V586.4ZM366.003 596C365.843 596 365.763 595.92 365.763 595.76V580.52C365.763 580.36 365.843 580.28 366.003 580.28H370.203C372.667 580.28 374.507 580.856 375.723 582.008C376.939 583.144 377.547 584.872 377.547 587.192V588.392C377.547 590.952 376.939 592.864 375.723 594.128C374.523 595.376 372.683 596 370.203 596H366.003ZM367.803 594.272H370.059C371.931 594.272 373.307 593.808 374.187 592.88C375.067 591.952 375.507 590.504 375.507 588.536V587.048C375.507 585.32 375.067 584.048 374.187 583.232C373.307 582.416 371.931 582.008 370.059 582.008H367.803V594.272ZM385.362 596.288C383.826 596.288 382.642 595.928 381.81 595.208C380.994 594.488 380.586 593.424 380.586 592.016V588.656C380.586 587.136 380.994 585.984 381.81 585.2C382.626 584.4 383.81 584 385.362 584C386.914 584 388.09 584.392 388.89 585.176C389.706 585.944 390.114 587.064 390.114 588.536V590.408C390.114 590.568 390.034 590.648 389.874 590.648H382.626V591.416C382.626 592.488 382.85 593.272 383.298 593.768C383.746 594.248 384.474 594.488 385.482 594.488C386.234 594.488 386.81 594.368 387.21 594.128C387.626 593.872 387.834 593.504 387.834 593.024C387.834 592.848 387.922 592.76 388.098 592.76H389.658C389.786 592.76 389.866 592.832 389.898 592.976C389.962 594 389.586 594.808 388.77 595.4C387.954 595.992 386.818 596.288 385.362 596.288ZM382.626 588.896H388.074V588.752C388.074 587.744 387.85 587 387.402 586.52C386.954 586.04 386.282 585.8 385.386 585.8C384.458 585.8 383.762 586.048 383.298 586.544C382.85 587.04 382.626 587.784 382.626 588.776V588.896ZM393.583 596C393.423 596 393.343 595.92 393.343 595.76V579.848C393.343 579.688 393.423 579.608 393.583 579.608H395.143C395.303 579.608 395.383 579.688 395.383 579.848V595.76C395.383 595.92 395.303 596 395.143 596H393.583ZM399.958 596C399.798 596 399.718 595.92 399.718 595.76V584.528C399.718 584.368 399.798 584.288 399.958 584.288H401.518C401.678 584.288 401.758 584.368 401.758 584.528V595.76C401.758 595.92 401.678 596 401.518 596H399.958ZM400.75 582.32C400.286 582.32 399.95 582.2 399.742 581.96C399.534 581.704 399.43 581.384 399.43 581V580.76C399.43 580.376 399.534 580.064 399.742 579.824C399.95 579.568 400.286 579.44 400.75 579.44C401.214 579.44 401.55 579.568 401.758 579.824C401.966 580.064 402.07 580.376 402.07 580.76V581C402.07 581.384 401.966 581.704 401.758 581.96C401.55 582.2 401.214 582.32 400.75 582.32ZM408.39 596C408.246 596 408.15 595.936 408.102 595.808L404.19 584.552C404.142 584.376 404.206 584.288 404.382 584.288H406.038C406.182 584.288 406.278 584.352 406.326 584.48L408.462 591.2C408.638 591.744 408.814 592.296 408.99 592.856C409.166 593.4 409.334 593.952 409.494 594.512H409.542C409.702 593.952 409.87 593.4 410.046 592.856C410.222 592.312 410.398 591.768 410.574 591.224L412.71 584.48C412.758 584.352 412.854 584.288 412.998 584.288H414.654C414.83 584.288 414.894 584.376 414.846 584.552L410.91 595.808C410.862 595.936 410.766 596 410.622 596H408.39ZM421.502 596.288C419.966 596.288 418.782 595.928 417.95 595.208C417.134 594.488 416.726 593.424 416.726 592.016V588.656C416.726 587.136 417.134 585.984 417.95 585.2C418.766 584.4 419.95 584 421.502 584C423.054 584 424.23 584.392 425.03 585.176C425.846 585.944 426.254 587.064 426.254 588.536V590.408C426.254 590.568 426.174 590.648 426.014 590.648H418.766V591.416C418.766 592.488 418.99 593.272 419.438 593.768C419.886 594.248 420.614 594.488 421.622 594.488C422.374 594.488 422.95 594.368 423.35 594.128C423.766 593.872 423.974 593.504 423.974 593.024C423.974 592.848 424.062 592.76 424.238 592.76H425.798C425.926 592.76 426.006 592.832 426.038 592.976C426.102 594 425.726 594.808 424.91 595.4C424.094 595.992 422.958 596.288 421.502 596.288ZM418.766 588.896H424.214V588.752C424.214 587.744 423.99 587 423.542 586.52C423.094 586.04 422.422 585.8 421.526 585.8C420.598 585.8 419.902 586.048 419.438 586.544C418.99 587.04 418.766 587.784 418.766 588.776V588.896ZM429.724 596C429.564 596 429.484 595.92 429.484 595.76V587.144C429.484 586.696 429.468 586.264 429.436 585.848C429.42 585.416 429.38 584.984 429.316 584.552C429.284 584.376 429.364 584.288 429.556 584.288H431.02C431.18 584.288 431.268 584.36 431.284 584.504C431.348 584.808 431.396 585.16 431.428 585.56C431.46 585.944 431.476 586.272 431.476 586.544L431.524 587.816V595.76C431.524 595.92 431.444 596 431.284 596H429.724ZM431.26 588.536L431.212 586.568C431.548 586.072 431.932 585.632 432.364 585.248C432.812 584.864 433.26 584.56 433.708 584.336C434.172 584.112 434.596 584 434.98 584C435.268 584 435.484 584.024 435.628 584.072C435.756 584.104 435.828 584.184 435.844 584.312C435.876 584.648 435.884 584.992 435.868 585.344C435.868 585.696 435.844 586.032 435.796 586.352C435.764 586.528 435.66 586.592 435.484 586.544C435.356 586.512 435.22 586.488 435.076 586.472C434.932 586.456 434.78 586.448 434.62 586.448C434.22 586.448 433.82 586.536 433.42 586.712C433.02 586.888 432.636 587.136 432.268 587.456C431.9 587.76 431.564 588.12 431.26 588.536ZM438.278 596C438.118 596 438.038 595.92 438.038 595.76V584.528C438.038 584.368 438.118 584.288 438.278 584.288H439.838C439.998 584.288 440.078 584.368 440.078 584.528V595.76C440.078 595.92 439.998 596 439.838 596H438.278ZM439.07 582.32C438.606 582.32 438.27 582.2 438.062 581.96C437.854 581.704 437.75 581.384 437.75 581V580.76C437.75 580.376 437.854 580.064 438.062 579.824C438.27 579.568 438.606 579.44 439.07 579.44C439.534 579.44 439.87 579.568 440.078 579.824C440.286 580.064 440.39 580.376 440.39 580.76V581C440.39 581.384 440.286 581.704 440.078 581.96C439.87 582.2 439.534 582.32 439.07 582.32ZM448.151 596.288C446.615 596.288 445.431 595.928 444.599 595.208C443.783 594.488 443.375 593.424 443.375 592.016V588.656C443.375 587.136 443.783 585.984 444.599 585.2C445.415 584.4 446.599 584 448.151 584C449.703 584 450.879 584.392 451.679 585.176C452.495 585.944 452.903 587.064 452.903 588.536V590.408C452.903 590.568 452.823 590.648 452.663 590.648H445.415V591.416C445.415 592.488 445.639 593.272 446.087 593.768C446.535 594.248 447.263 594.488 448.271 594.488C449.023 594.488 449.599 594.368 449.999 594.128C450.415 593.872 450.623 593.504 450.623 593.024C450.623 592.848 450.711 592.76 450.887 592.76H452.447C452.575 592.76 452.655 592.832 452.687 592.976C452.751 594 452.375 594.808 451.559 595.4C450.743 595.992 449.607 596.288 448.151 596.288ZM445.415 588.896H450.863V588.752C450.863 587.744 450.639 587 450.191 586.52C449.743 586.04 449.071 585.8 448.175 585.8C447.247 585.8 446.551 586.048 446.087 586.544C445.639 587.04 445.415 587.784 445.415 588.776V588.896ZM459.924 596.288C458.484 596.288 457.404 595.976 456.684 595.352C455.964 594.712 455.604 593.76 455.604 592.496C455.604 592.352 455.684 592.28 455.844 592.28H457.428C457.572 592.28 457.644 592.344 457.644 592.472C457.644 593.192 457.82 593.712 458.172 594.032C458.54 594.352 459.132 594.512 459.948 594.512C460.732 594.512 461.324 594.384 461.724 594.128C462.124 593.856 462.324 593.472 462.324 592.976C462.324 592.608 462.212 592.304 461.988 592.064C461.764 591.808 461.412 591.576 460.932 591.368L458.196 590.24C457.316 589.872 456.692 589.456 456.324 588.992C455.956 588.528 455.772 587.928 455.772 587.192C455.772 586.136 456.108 585.344 456.78 584.816C457.452 584.272 458.452 584 459.78 584C461.14 584 462.196 584.288 462.948 584.864C463.7 585.424 464.076 586.224 464.076 587.264C464.076 587.408 463.996 587.48 463.836 587.48H462.252C462.092 587.48 462.012 587.352 462.012 587.096C462.012 586.68 461.82 586.36 461.436 586.136C461.052 585.896 460.524 585.776 459.852 585.776C459.164 585.776 458.652 585.896 458.316 586.136C457.98 586.36 457.812 586.712 457.812 587.192C457.812 587.544 457.9 587.808 458.076 587.984C458.268 588.16 458.644 588.368 459.204 588.608L461.94 589.76C462.788 590.112 463.404 590.528 463.788 591.008C464.172 591.488 464.364 592.104 464.364 592.856C464.364 593.96 463.98 594.808 463.212 595.4C462.444 595.992 461.348 596.288 459.924 596.288ZM483.639 597.128H474.519V579.224H483.375V581.672H477.135V586.664H483.039V589.112H477.135V594.656H483.639V597.128ZM493.478 580.016C493.078 579.84 492.67 579.752 492.254 579.752C491.614 579.752 491.19 579.944 490.982 580.328C490.822 580.584 490.742 581.048 490.742 581.72C490.742 581.816 490.742 581.984 490.742 582.224C490.758 582.464 490.766 582.648 490.766 582.776V583.712H493.166V586.04H490.766V597.128H488.222V586.04H485.99V583.712H488.222V582.896C488.222 581.056 488.422 579.784 488.822 579.08C489.366 578.072 490.462 577.568 492.11 577.568C492.798 577.568 493.302 577.664 493.622 577.856L493.478 580.016ZM502.196 580.016C501.796 579.84 501.388 579.752 500.972 579.752C500.332 579.752 499.908 579.944 499.7 580.328C499.54 580.584 499.46 581.048 499.46 581.72C499.46 581.816 499.46 581.984 499.46 582.224C499.476 582.464 499.484 582.648 499.484 582.776V583.712H501.884V586.04H499.484V597.128H496.94V586.04H494.708V583.712H496.94V582.896C496.94 581.056 497.14 579.784 497.54 579.08C498.084 578.072 499.18 577.568 500.828 577.568C501.516 577.568 502.02 577.664 502.34 577.856L502.196 580.016ZM510.075 585.992C508.987 585.992 508.123 586.424 507.483 587.288C506.875 588.136 506.571 589.232 506.571 590.576C506.571 591.92 506.875 593.016 507.483 593.864C508.123 594.728 508.987 595.16 510.075 595.16C511.163 595.16 512.019 594.728 512.643 593.864C513.267 593.032 513.579 591.936 513.579 590.576C513.579 589.232 513.267 588.136 512.643 587.288C512.019 586.424 511.163 585.992 510.075 585.992ZM510.075 583.736C512.059 583.736 513.603 584.448 514.707 585.872C515.699 587.136 516.195 588.704 516.195 590.576C516.195 592.448 515.699 594.016 514.707 595.28C513.603 596.704 512.059 597.416 510.075 597.416C508.075 597.416 506.523 596.704 505.419 595.28C504.443 594.048 503.955 592.48 503.955 590.576C503.955 588.672 504.443 587.104 505.419 585.872C506.523 584.448 508.075 583.736 510.075 583.736ZM525.542 586.4C525.334 586.368 525.142 586.344 524.966 586.328C524.79 586.296 524.614 586.28 524.438 586.28C523.51 586.28 522.822 586.736 522.374 587.648C521.958 588.448 521.75 589.44 521.75 590.624V597.128H519.182V587.24C519.182 586.632 519.166 586.064 519.134 585.536C519.118 584.992 519.094 584.488 519.062 584.024H521.654V585.632C522.39 584.368 523.326 583.736 524.462 583.736C524.814 583.736 525.174 583.784 525.542 583.88V586.4ZM534.308 597.032C533.7 597.288 533.012 597.416 532.244 597.416C530.724 597.416 529.74 597.008 529.292 596.192C528.956 595.648 528.788 594.6 528.788 593.048V586.256H526.724V583.88H528.788V581.024L531.38 580.184V583.88H533.924V586.256H531.38V593.72C531.38 594.648 531.804 595.112 532.652 595.112C533.212 595.112 533.7 595.008 534.116 594.8L534.308 597.032ZM539.163 597.032H536.547V577.928H539.163V597.032ZM552.699 591.488H544.611C544.659 592.64 544.971 593.536 545.547 594.176C546.139 594.864 546.955 595.208 547.995 595.208C549.435 595.208 550.707 594.896 551.811 594.272V596.696C550.531 597.176 549.235 597.416 547.923 597.416C545.859 597.416 544.323 596.76 543.315 595.448C542.435 594.28 541.995 592.648 541.995 590.552C541.995 588.536 542.483 586.896 543.459 585.632C544.435 584.368 545.747 583.736 547.395 583.736C549.235 583.736 550.611 584.392 551.523 585.704C552.307 586.824 552.699 588.304 552.699 590.144V591.488ZM550.083 589.208C550.083 588.312 549.851 587.56 549.387 586.952C548.907 586.312 548.275 585.992 547.491 585.992C546.691 585.992 546.011 586.32 545.451 586.976C544.891 587.632 544.611 588.376 544.611 589.208H550.083ZM562.369 586.64C561.313 586.192 560.313 585.968 559.369 585.968C558.041 585.968 557.377 586.488 557.377 587.528C557.377 587.992 557.881 588.472 558.889 588.968C560.345 589.688 561.281 590.216 561.697 590.552C562.689 591.368 563.185 592.376 563.185 593.576C563.185 594.92 562.649 595.936 561.577 596.624C560.729 597.152 559.713 597.416 558.529 597.416C557.089 597.416 555.841 597.2 554.785 596.768L555.025 594.296C556.193 594.872 557.337 595.16 558.457 595.16C559.097 595.16 559.625 594.992 560.041 594.656C560.425 594.352 560.617 593.952 560.617 593.456C560.617 592.816 560.129 592.224 559.153 591.68C558.241 591.184 557.561 590.808 557.113 590.552C556.665 590.296 556.433 590.16 556.417 590.144C555.441 589.408 554.953 588.504 554.953 587.432C554.953 586.12 555.441 585.144 556.417 584.504C557.201 583.992 558.153 583.736 559.273 583.736C560.521 583.736 561.641 583.952 562.633 584.384L562.369 586.64ZM572.541 586.64C571.485 586.192 570.485 585.968 569.541 585.968C568.213 585.968 567.549 586.488 567.549 587.528C567.549 587.992 568.053 588.472 569.061 588.968C570.517 589.688 571.453 590.216 571.869 590.552C572.861 591.368 573.357 592.376 573.357 593.576C573.357 594.92 572.821 595.936 571.749 596.624C570.901 597.152 569.885 597.416 568.701 597.416C567.261 597.416 566.013 597.2 564.957 596.768L565.197 594.296C566.365 594.872 567.509 595.16 568.629 595.16C569.269 595.16 569.797 594.992 570.213 594.656C570.597 594.352 570.789 593.952 570.789 593.456C570.789 592.816 570.301 592.224 569.325 591.68C568.413 591.184 567.733 590.808 567.285 590.552C566.837 590.296 566.605 590.16 566.589 590.144C565.613 589.408 565.125 588.504 565.125 587.432C565.125 586.12 565.613 585.144 566.589 584.504C567.373 583.992 568.325 583.736 569.445 583.736C570.693 583.736 571.813 583.952 572.805 584.384L572.541 586.64ZM578.585 597.032H575.969V577.928H578.585V597.032ZM591.737 584.048L586.985 597.32C586.585 598.44 586.169 599.216 585.737 599.648C585.209 600.24 584.505 600.544 583.625 600.56H583.385C582.777 600.56 582.153 600.48 581.513 600.32L581.777 597.92C582.337 598.128 582.793 598.232 583.145 598.232C583.177 598.232 583.241 598.224 583.337 598.208C583.449 598.208 583.593 598.2 583.769 598.184C584.137 598.152 584.473 597.616 584.777 596.576L584.969 595.952L580.625 584.048H583.265L586.169 592.808L589.193 584.048H591.737Z" fill="white"/>
<path d="M193.628 232C181.284 420.942 352.49 526.269 572 517.492" stroke="white" stroke-width="31"/>
<g clip-path="url(#clip4_35_40)">
<path d="M492.74 489.505C491.338 490.592 490.375 492.12 490.089 493.854H488.954C488.429 493.854 488 493.466 488 492.991V490.368C488 489.894 488.429 489.505 488.954 489.505L492.74 489.505ZM503.669 493.854C503.745 494.191 503.783 494.527 503.783 494.881C503.783 497.84 501.132 500.248 497.851 500.248C494.58 500.248 491.92 497.84 491.92 494.881C491.92 494.527 491.958 494.191 492.034 493.854C492.558 491.378 494.962 489.505 497.851 489.505C500.741 489.505 503.154 491.378 503.669 493.854ZM500.817 494.881C500.817 494.519 500.741 494.165 500.589 493.854C500.15 492.879 499.091 492.197 497.852 492.197C496.612 492.197 495.553 492.879 495.114 493.854C494.962 494.165 494.886 494.519 494.886 494.881C494.886 496.356 496.211 497.564 497.852 497.564C499.492 497.564 500.817 496.356 500.817 494.881ZM490.348 486.063V460.341C490.348 458.911 491.629 457.752 493.209 457.752H538.795C540.375 457.752 541.656 458.911 541.656 460.341V486.063C541.656 486.537 541.227 486.925 540.702 486.925H491.302C490.777 486.925 490.348 486.537 490.348 486.063ZM534.732 483.159C534.732 483.568 535.099 483.9 535.552 483.9H535.577C536.03 483.9 536.397 483.568 536.397 483.159V461.816C536.397 461.407 536.03 461.075 535.577 461.075H535.552C535.099 461.075 534.732 461.407 534.732 461.816V483.159ZM527.023 483.159C527.023 483.568 527.39 483.9 527.843 483.9H527.869C528.321 483.9 528.688 483.568 528.688 483.159V461.816C528.688 461.407 528.321 461.075 527.869 461.075H527.843C527.39 461.075 527.023 461.407 527.023 461.816V483.159ZM519.315 483.159C519.315 483.568 519.682 483.9 520.135 483.9H520.16C520.613 483.9 520.98 483.568 520.98 483.159V461.816C520.98 461.407 520.613 461.075 520.16 461.075H520.135C519.682 461.075 519.315 461.407 519.315 461.816V483.159ZM511.606 483.159C511.606 483.568 511.973 483.9 512.426 483.9H512.452C512.904 483.9 513.271 483.568 513.271 483.159V461.816C513.271 461.407 512.904 461.075 512.452 461.075H512.426C511.973 461.075 511.606 461.407 511.606 461.816V483.159ZM503.898 483.159C503.898 483.568 504.265 483.9 504.718 483.9H504.743C505.196 483.9 505.563 483.568 505.563 483.159V461.816C505.563 461.407 505.196 461.075 504.743 461.075H504.718C504.265 461.075 503.898 461.407 503.898 461.816V483.159ZM496.189 483.159C496.189 483.568 496.556 483.9 497.009 483.9H497.035C497.487 483.9 497.854 483.568 497.854 483.159V461.816C497.854 461.407 497.487 461.075 497.035 461.075H497.009C496.556 461.075 496.189 461.407 496.189 461.816V483.159ZM518.308 493.854C518.384 494.191 518.422 494.527 518.422 494.881C518.422 497.84 515.771 500.248 512.491 500.248C509.219 500.248 506.559 497.84 506.559 494.881C506.559 494.527 506.597 494.191 506.673 493.854C507.198 491.378 509.601 489.505 512.491 489.505C515.38 489.505 517.793 491.378 518.308 493.854ZM515.456 494.881C515.456 494.519 515.38 494.165 515.237 493.854C514.789 492.879 513.73 492.197 512.491 492.197C511.251 492.197 510.192 492.879 509.744 493.854C509.601 494.165 509.525 494.519 509.525 494.881C509.525 496.356 510.85 497.564 512.491 497.564C514.131 497.564 515.456 496.356 515.456 494.881ZM507.379 489.505H502.963C503.936 490.264 504.709 491.24 505.176 492.344C505.634 491.24 506.406 490.264 507.379 489.505ZM572 490.368V492.991C572 493.466 571.571 493.854 571.046 493.854H563.322C562.769 490.428 559.516 487.78 555.578 487.78C551.639 487.78 548.377 490.428 547.824 493.854H520.253C519.967 492.12 519.004 490.592 517.602 489.505H544.382V464.828C544.382 463.878 545.23 463.102 546.289 463.102H555.292C557.828 463.102 560.194 464.241 561.614 466.139L567.422 473.922C568.271 475.061 568.729 476.407 568.729 477.779V489.505H571.046C571.571 489.505 572 489.893 572 490.368ZM562.33 474.121L557.685 468.15C557.504 467.925 557.218 467.787 556.903 467.787H549.665C549.141 467.787 548.711 468.175 548.711 468.65V474.612C548.711 475.096 549.141 475.475 549.665 475.475H561.548C562.32 475.475 562.768 474.69 562.33 474.121ZM561.509 494.881C561.509 497.84 558.849 500.248 555.578 500.248C552.297 500.248 549.646 497.84 549.646 494.881C549.646 491.913 552.297 489.505 555.578 489.505C558.849 489.505 561.509 491.913 561.509 494.881ZM558.544 494.881C558.544 493.397 557.218 492.197 555.578 492.197C553.937 492.197 552.612 493.397 552.612 494.881C552.612 496.356 553.937 497.564 555.578 497.564C557.218 497.564 558.544 496.356 558.544 494.881Z" fill="white"/>
</g>
<path d="M486 490C475.657 488.098 485.647 489.154 471 486" stroke="white" stroke-width="2"/>
<path d="M487 487C482.227 484.868 486.788 483.211 480 478" stroke="white" stroke-width="2"/>
<path d="M486 494C473.5 496 476 489.5 467 493" stroke="white" stroke-width="2"/>
<defs>
<clipPath id="clip0_35_40">
<path d="M455 667H679V790C679 803.807 667.807 815 654 815H455V667Z" fill="white"/>
</clipPath>
<clipPath id="clip1_35_40">
<path d="M498 176V5.72217e-06H654C667.807 5.72217e-06 679 11.1929 679 25V176H498Z" fill="white"/>
</clipPath>
<clipPath id="clip2_35_40">
<rect width="140" height="329" fill="white" transform="matrix(-1 0 0 -1 140 329)"/>
</clipPath>
<clipPath id="clip3_35_40">
<rect width="140" height="329" fill="white" transform="matrix(-1 0 0 1 140 490)"/>
</clipPath>
<clipPath id="clip4_35_40">
<rect width="84" height="76" fill="white" transform="translate(488 441)"/>
</clipPath>
</defs>
</svg>
